<?xml version="1.0" encoding="UTF-8" standalone="no"?><svg xmlns="http://www.w3.org/2000/svg" xmlns:xlink="http://www.w3.org/1999/xlink" contentScriptType="application/ecmascript" contentStyleType="text/css" height="573.8728px" preserveAspectRatio="none" style="width:2000px;height:573px;" version="1.1" viewBox="0 0 2000 573" width="2000.4624px" zoomAndPan="magnify"><defs><filter height="300%" id="f1fdueanlmkw8n" width="300%" x="-1" y="-1"><feGaussianBlur result="blurOut" stdDeviation="0.9248554913294798"/><feColorMatrix in="blurOut" result="blurOut2" type="matrix" values="0 0 0 0 0 0 0 0 0 0 0 0 0 0 0 0 0 0 .4 0"/><feOffset dx="1.8497109826589595" dy="1.8497109826589595" in="blurOut2" result="blurOut3"/><feBlend in="SourceGraphic" in2="blurOut3" mode="normal"/></filter></defs><g><line style="stroke:#A80036;stroke-width:0.4624277456647399;stroke-dasharray:5.0,5.0;" x1="12.4855" x2="12.4855" y1="40.8309" y2="535.065"/><line style="stroke:#A80036;stroke-width:0.4624277456647399;stroke-dasharray:5.0,5.0;" x1="43.9306" x2="43.9306" y1="40.8309" y2="535.065"/><line style="stroke:#A80036;stroke-width:0.4624277456647399;stroke-dasharray:5.0,5.0;" x1="103.1214" x2="103.1214" y1="40.8309" y2="535.065"/><line style="stroke:#A80036;stroke-width:0.4624277456647399;stroke-dasharray:5.0,5.0;" x1="176.6474" x2="176.6474" y1="40.8309" y2="535.065"/><line style="stroke:#A80036;stroke-width:0.4624277456647399;stroke-dasharray:5.0,5.0;" x1="247.8613" x2="247.8613" y1="40.8309" y2="535.065"/><line style="stroke:#A80036;stroke-width:0.4624277456647399;stroke-dasharray:5.0,5.0;" x1="311.2139" x2="311.2139" y1="40.8309" y2="535.065"/><line style="stroke:#A80036;stroke-width:0.4624277456647399;stroke-dasharray:5.0,5.0;" x1="382.8902" x2="382.8902" y1="40.8309" y2="535.065"/><line style="stroke:#A80036;stroke-width:0.4624277456647399;stroke-dasharray:5.0,5.0;" x1="470.289" x2="470.289" y1="40.8309" y2="535.065"/><line style="stroke:#A80036;stroke-width:0.4624277456647399;stroke-dasharray:5.0,5.0;" x1="572.948" x2="572.948" y1="40.8309" y2="535.065"/><line style="stroke:#A80036;stroke-width:0.4624277456647399;stroke-dasharray:5.0,5.0;" x1="683.4682" x2="683.4682" y1="40.8309" y2="535.065"/><line style="stroke:#A80036;stroke-width:0.4624277456647399;stroke-dasharray:5.0,5.0;" x1="773.6416" x2="773.6416" y1="40.8309" y2="535.065"/><line style="stroke:#A80036;stroke-width:0.4624277456647399;stroke-dasharray:5.0,5.0;" x1="861.0405" x2="861.0405" y1="40.8309" y2="535.065"/><line style="stroke:#A80036;stroke-width:0.4624277456647399;stroke-dasharray:5.0,5.0;" x1="934.5665" x2="934.5665" y1="40.8309" y2="535.065"/><line style="stroke:#A80036;stroke-width:0.4624277456647399;stroke-dasharray:5.0,5.0;" x1="1002.0809" x2="1002.0809" y1="40.8309" y2="535.065"/><line style="stroke:#A80036;stroke-width:0.4624277456647399;stroke-dasharray:5.0,5.0;" x1="1086.2428" x2="1086.2428" y1="40.8309" y2="535.065"/><line style="stroke:#A80036;stroke-width:0.4624277456647399;stroke-dasharray:5.0,5.0;" x1="1180.1156" x2="1180.1156" y1="40.8309" y2="535.065"/><line style="stroke:#A80036;stroke-width:0.4624277456647399;stroke-dasharray:5.0,5.0;" x1="1274.4509" x2="1274.4509" y1="40.8309" y2="535.065"/><line style="stroke:#A80036;stroke-width:0.4624277456647399;stroke-dasharray:5.0,5.0;" x1="1371.0983" x2="1371.0983" y1="40.8309" y2="535.065"/><line style="stroke:#A80036;stroke-width:0.4624277456647399;stroke-dasharray:5.0,5.0;" x1="1455.7225" x2="1455.7225" y1="40.8309" y2="535.065"/><line style="stroke:#A80036;stroke-width:0.4624277456647399;stroke-dasharray:5.0,5.0;" x1="1542.659" x2="1542.659" y1="40.8309" y2="535.065"/><line style="stroke:#A80036;stroke-width:0.4624277456647399;stroke-dasharray:5.0,5.0;" x1="1643.0058" x2="1643.0058" y1="40.8309" y2="535.065"/><line style="stroke:#A80036;stroke-width:0.4624277456647399;stroke-dasharray:5.0,5.0;" x1="1750.289" x2="1750.289" y1="40.8309" y2="535.065"/><line style="stroke:#A80036;stroke-width:0.4624277456647399;stroke-dasharray:5.0,5.0;" x1="1864.9711" x2="1864.9711" y1="40.8309" y2="535.065"/><line style="stroke:#A80036;stroke-width:0.4624277456647399;stroke-dasharray:5.0,5.0;" x1="1958.8439" x2="1958.8439" y1="40.8309" y2="535.065"/><text fill="#000000" font-family="sans-serif" font-size="6.474" lengthAdjust="spacing" textLength="17.5723" x="2.3121" y="39.3041">actor</text><ellipse cx="12.4855" cy="6.9364" fill="#FEFECE" filter="url(#f1fdueanlmkw8n)" rx="3.6994" ry="3.6994" style="stroke:#A80036;stroke-width:0.9248554913294798;"/><path d="M12.4855,10.6358 L12.4855,23.1214 M6.474,14.3353 L18.4971,14.3353 M12.4855,23.1214 L6.474,30.0578 M12.4855,23.1214 L18.4971,30.0578 " fill="none" filter="url(#f1fdueanlmkw8n)" style="stroke:#A80036;stroke-width:0.9248554913294798;"/><text fill="#000000" font-family="sans-serif" font-size="6.474" lengthAdjust="spacing" textLength="17.5723" x="2.3121" y="540.6119">actor</text><ellipse cx="12.4855" cy="546.763" fill="#FEFECE" filter="url(#f1fdueanlmkw8n)" rx="3.6994" ry="3.6994" style="stroke:#A80036;stroke-width:0.9248554913294798;"/><path d="M12.4855,550.4624 L12.4855,562.948 M6.474,554.1618 L18.4971,554.1618 M12.4855,562.948 L6.474,569.8844 M12.4855,562.948 L18.4971,569.8844 " fill="none" filter="url(#f1fdueanlmkw8n)" style="stroke:#A80036;stroke-width:0.9248554913294798;"/><text fill="#000000" font-family="sans-serif" font-size="6.474" lengthAdjust="spacing" textLength="30.5202" x="27.2832" y="39.3041">database</text><path d="M35.6069,16.6474 C35.6069,12.0231 43.9306,12.0231 43.9306,12.0231 C43.9306,12.0231 52.2543,12.0231 52.2543,16.6474 L52.2543,28.6705 C52.2543,33.2948 43.9306,33.2948 43.9306,33.2948 C43.9306,33.2948 35.6069,33.2948 35.6069,28.6705 L35.6069,16.6474 " fill="#FEFECE" filter="url(#f1fdueanlmkw8n)" style="stroke:#000000;stroke-width:0.6936416184971098;"/><path d="M35.6069,16.6474 C35.6069,21.2717 43.9306,21.2717 43.9306,21.2717 C43.9306,21.2717 52.2543,21.2717 52.2543,16.6474 " fill="none" style="stroke:#000000;stroke-width:0.6936416184971098;"/><text fill="#000000" font-family="sans-serif" font-size="6.474" lengthAdjust="spacing" textLength="30.5202" x="27.2832" y="540.6119">database</text><path d="M35.6069,546.763 C35.6069,542.1387 43.9306,542.1387 43.9306,542.1387 C43.9306,542.1387 52.2543,542.1387 52.2543,546.763 L52.2543,558.7861 C52.2543,563.4104 43.9306,563.4104 43.9306,563.4104 C43.9306,563.4104 35.6069,563.4104 35.6069,558.7861 L35.6069,546.763 " fill="#FEFECE" filter="url(#f1fdueanlmkw8n)" style="stroke:#000000;stroke-width:0.6936416184971098;"/><path d="M35.6069,546.763 C35.6069,551.3873 43.9306,551.3873 43.9306,551.3873 C43.9306,551.3873 52.2543,551.3873 52.2543,546.763 " fill="none" style="stroke:#000000;stroke-width:0.6936416184971098;"/><rect fill="#FEFECE" filter="url(#f1fdueanlmkw8n)" height="14.0101" style="stroke:#A80036;stroke-width:0.6936416184971098;" width="73.9884" x="65.2023" y="24.5087"/><text fill="#000000" font-family="sans-serif" font-size="6.474" lengthAdjust="spacing" textLength="67.5145" x="68.4393" y="33.755">LoginViewController</text><rect fill="#FEFECE" filter="url(#f1fdueanlmkw8n)" height="14.0101" style="stroke:#A80036;stroke-width:0.6936416184971098;" width="73.9884" x="65.2023" y="534.6026"/><text fill="#000000" font-family="sans-serif" font-size="6.474" lengthAdjust="spacing" textLength="67.5145" x="68.4393" y="543.8489">LoginViewController</text><rect fill="#FEFECE" filter="url(#f1fdueanlmkw8n)" height="14.0101" style="stroke:#A80036;stroke-width:0.6936416184971098;" width="60.1156" x="145.6647" y="24.5087"/><text fill="#000000" font-family="sans-serif" font-size="6.474" lengthAdjust="spacing" textLength="53.6416" x="148.9017" y="33.755">FeedActionsCell</text><rect fill="#FEFECE" filter="url(#f1fdueanlmkw8n)" height="14.0101" style="stroke:#A80036;stroke-width:0.6936416184971098;" width="60.1156" x="145.6647" y="534.6026"/><text fill="#000000" font-family="sans-serif" font-size="6.474" lengthAdjust="spacing" textLength="53.6416" x="148.9017" y="543.8489">FeedActionsCell</text><rect fill="#FEFECE" filter="url(#f1fdueanlmkw8n)" height="14.0101" style="stroke:#A80036;stroke-width:0.6936416184971098;" width="69.8266" x="212.2543" y="24.5087"/><text fill="#000000" font-family="sans-serif" font-size="6.474" lengthAdjust="spacing" textLength="63.3526" x="215.4913" y="33.755">ProfileConnections</text><rect fill="#FEFECE" filter="url(#f1fdueanlmkw8n)" height="14.0101" style="stroke:#A80036;stroke-width:0.6936416184971098;" width="69.8266" x="212.2543" y="534.6026"/><text fill="#000000" font-family="sans-serif" font-size="6.474" lengthAdjust="spacing" textLength="63.3526" x="215.4913" y="543.8489">ProfileConnections</text><rect fill="#FEFECE" filter="url(#f1fdueanlmkw8n)" height="14.0101" style="stroke:#A80036;stroke-width:0.6936416184971098;" width="43.9306" x="288.5549" y="24.5087"/><text fill="#000000" font-family="sans-serif" font-size="6.474" lengthAdjust="spacing" textLength="37.4566" x="291.7919" y="33.755">ProfileTabs</text><rect fill="#FEFECE" filter="url(#f1fdueanlmkw8n)" height="14.0101" style="stroke:#A80036;stroke-width:0.6936416184971098;" width="43.9306" x="288.5549" y="534.6026"/><text fill="#000000" font-family="sans-serif" font-size="6.474" lengthAdjust="spacing" textLength="37.4566" x="291.7919" y="543.8489">ProfileTabs</text><rect fill="#FEFECE" filter="url(#f1fdueanlmkw8n)" height="14.0101" style="stroke:#A80036;stroke-width:0.6936416184971098;" width="86.474" x="338.9595" y="24.5087"/><text fill="#000000" font-family="sans-serif" font-size="6.474" lengthAdjust="spacing" textLength="80" x="342.1965" y="33.755">ViewPostViewController</text><rect fill="#FEFECE" filter="url(#f1fdueanlmkw8n)" height="14.0101" style="stroke:#A80036;stroke-width:0.6936416184971098;" width="86.474" x="338.9595" y="534.6026"/><text fill="#000000" font-family="sans-serif" font-size="6.474" lengthAdjust="spacing" textLength="80" x="342.1965" y="543.8489">ViewPostViewController</text><rect fill="#FEFECE" filter="url(#f1fdueanlmkw8n)" height="14.0101" style="stroke:#A80036;stroke-width:0.6936416184971098;" width="74.9133" x="431.9075" y="24.5087"/><text fill="#000000" font-family="sans-serif" font-size="6.474" lengthAdjust="spacing" textLength="68.4393" x="435.1445" y="33.755">ScoutViewController</text><rect fill="#FEFECE" filter="url(#f1fdueanlmkw8n)" height="14.0101" style="stroke:#A80036;stroke-width:0.6936416184971098;" width="74.9133" x="431.9075" y="534.6026"/><text fill="#000000" font-family="sans-serif" font-size="6.474" lengthAdjust="spacing" textLength="68.4393" x="435.1445" y="543.8489">ScoutViewController</text><rect fill="#FEFECE" filter="url(#f1fdueanlmkw8n)" height="14.0101" style="stroke:#A80036;stroke-width:0.6936416184971098;" width="117.9191" x="513.2948" y="24.5087"/><text fill="#000000" font-family="sans-serif" font-size="6.474" lengthAdjust="spacing" textLength="111.4451" x="516.5318" y="33.755">ScoutInfoCollectionReusableView</text><rect fill="#FEFECE" filter="url(#f1fdueanlmkw8n)" height="14.0101" style="stroke:#A80036;stroke-width:0.6936416184971098;" width="117.9191" x="513.2948" y="534.6026"/><text fill="#000000" font-family="sans-serif" font-size="6.474" lengthAdjust="spacing" textLength="111.4451" x="516.5318" y="543.8489">ScoutInfoCollectionReusableView</text><rect fill="#FEFECE" filter="url(#f1fdueanlmkw8n)" height="14.0101" style="stroke:#A80036;stroke-width:0.6936416184971098;" width="89.711" x="637.6879" y="24.5087"/><text fill="#000000" font-family="sans-serif" font-size="6.474" lengthAdjust="spacing" textLength="83.237" x="640.9249" y="33.755">OtherUserViewController</text><rect fill="#FEFECE" filter="url(#f1fdueanlmkw8n)" height="14.0101" style="stroke:#A80036;stroke-width:0.6936416184971098;" width="89.711" x="637.6879" y="534.6026"/><text fill="#000000" font-family="sans-serif" font-size="6.474" lengthAdjust="spacing" textLength="83.237" x="640.9249" y="543.8489">OtherUserViewController</text><rect fill="#FEFECE" filter="url(#f1fdueanlmkw8n)" height="14.0101" style="stroke:#A80036;stroke-width:0.6936416184971098;" width="77.6879" x="733.8728" y="24.5087"/><text fill="#000000" font-family="sans-serif" font-size="6.474" lengthAdjust="spacing" textLength="71.2139" x="737.1098" y="33.755">ProfileViewController</text><rect fill="#FEFECE" filter="url(#f1fdueanlmkw8n)" height="14.0101" style="stroke:#A80036;stroke-width:0.6936416184971098;" width="77.6879" x="733.8728" y="534.6026"/><text fill="#000000" font-family="sans-serif" font-size="6.474" lengthAdjust="spacing" textLength="71.2139" x="737.1098" y="543.8489">ProfileViewController</text><rect fill="#FEFECE" filter="url(#f1fdueanlmkw8n)" height="14.0101" style="stroke:#A80036;stroke-width:0.6936416184971098;" width="84.1618" x="818.0347" y="24.5087"/><text fill="#000000" font-family="sans-serif" font-size="6.474" lengthAdjust="spacing" textLength="77.6879" x="821.2717" y="33.755">RegisterViewController</text><rect fill="#FEFECE" filter="url(#f1fdueanlmkw8n)" height="14.0101" style="stroke:#A80036;stroke-width:0.6936416184971098;" width="84.1618" x="818.0347" y="534.6026"/><text fill="#000000" font-family="sans-serif" font-size="6.474" lengthAdjust="spacing" textLength="77.6879" x="821.2717" y="543.8489">RegisterViewController</text><rect fill="#FEFECE" filter="url(#f1fdueanlmkw8n)" height="14.0101" style="stroke:#A80036;stroke-width:0.6936416184971098;" width="50.4046" x="908.6705" y="24.5087"/><text fill="#000000" font-family="sans-serif" font-size="6.474" lengthAdjust="spacing" textLength="43.9306" x="911.9075" y="33.755">AuthManager</text><rect fill="#FEFECE" filter="url(#f1fdueanlmkw8n)" height="14.0101" style="stroke:#A80036;stroke-width:0.6936416184971098;" width="50.4046" x="908.6705" y="534.6026"/><text fill="#000000" font-family="sans-serif" font-size="6.474" lengthAdjust="spacing" textLength="43.9306" x="911.9075" y="543.8489">AuthManager</text><rect fill="#FEFECE" filter="url(#f1fdueanlmkw8n)" height="14.0101" style="stroke:#A80036;stroke-width:0.6936416184971098;" width="71.2139" x="965.5491" y="24.5087"/><text fill="#000000" font-family="sans-serif" font-size="6.474" lengthAdjust="spacing" textLength="64.7399" x="968.7861" y="33.755">ListsViewController</text><rect fill="#FEFECE" filter="url(#f1fdueanlmkw8n)" height="14.0101" style="stroke:#A80036;stroke-width:0.6936416184971098;" width="71.2139" x="965.5491" y="534.6026"/><text fill="#000000" font-family="sans-serif" font-size="6.474" lengthAdjust="spacing" textLength="64.7399" x="968.7861" y="543.8489">ListsViewController</text><rect fill="#FEFECE" filter="url(#f1fdueanlmkw8n)" height="14.0101" style="stroke:#A80036;stroke-width:0.6936416184971098;" width="84.1618" x="1043.237" y="24.5087"/><text fill="#000000" font-family="sans-serif" font-size="6.474" lengthAdjust="spacing" textLength="77.6879" x="1046.474" y="33.755">SettingsViewController</text><rect fill="#FEFECE" filter="url(#f1fdueanlmkw8n)" height="14.0101" style="stroke:#A80036;stroke-width:0.6936416184971098;" width="84.1618" x="1043.237" y="534.6026"/><text fill="#000000" font-family="sans-serif" font-size="6.474" lengthAdjust="spacing" textLength="77.6879" x="1046.474" y="543.8489">SettingsViewController</text><rect fill="#FEFECE" filter="url(#f1fdueanlmkw8n)" height="14.0101" style="stroke:#A80036;stroke-width:0.6936416184971098;" width="91.0983" x="1133.8728" y="24.5087"/><text fill="#000000" font-family="sans-serif" font-size="6.474" lengthAdjust="spacing" textLength="84.6243" x="1137.1098" y="33.755">EditProfileViewController</text><rect fill="#FEFECE" filter="url(#f1fdueanlmkw8n)" height="14.0101" style="stroke:#A80036;stroke-width:0.6936416184971098;" width="91.0983" x="1133.8728" y="534.6026"/><text fill="#000000" font-family="sans-serif" font-size="6.474" lengthAdjust="spacing" textLength="84.6243" x="1137.1098" y="543.8489">EditProfileViewController</text><rect fill="#FEFECE" filter="url(#f1fdueanlmkw8n)" height="14.0101" style="stroke:#A80036;stroke-width:0.6936416184971098;" width="84.6243" x="1231.4451" y="24.5087"/><text fill="#000000" font-family="sans-serif" font-size="6.474" lengthAdjust="spacing" textLength="78.1503" x="1234.6821" y="33.755">NewPostViewController</text><rect fill="#FEFECE" filter="url(#f1fdueanlmkw8n)" height="14.0101" style="stroke:#A80036;stroke-width:0.6936416184971098;" width="84.6243" x="1231.4451" y="534.6026"/><text fill="#000000" font-family="sans-serif" font-size="6.474" lengthAdjust="spacing" textLength="78.1503" x="1234.6821" y="543.8489">NewPostViewController</text><rect fill="#FEFECE" filter="url(#f1fdueanlmkw8n)" height="14.0101" style="stroke:#A80036;stroke-width:0.6936416184971098;" width="95.2601" x="1322.5434" y="24.5087"/><text fill="#000000" font-family="sans-serif" font-size="6.474" lengthAdjust="spacing" textLength="88.7861" x="1325.7803" y="33.755">AddCaptionViewController</text><rect fill="#FEFECE" filter="url(#f1fdueanlmkw8n)" height="14.0101" style="stroke:#A80036;stroke-width:0.6936416184971098;" width="95.2601" x="1322.5434" y="534.6026"/><text fill="#000000" font-family="sans-serif" font-size="6.474" lengthAdjust="spacing" textLength="88.7861" x="1325.7803" y="543.8489">AddCaptionViewController</text><rect fill="#FEFECE" filter="url(#f1fdueanlmkw8n)" height="14.0101" style="stroke:#A80036;stroke-width:0.6936416184971098;" width="61.0405" x="1424.2775" y="24.5087"/><text fill="#000000" font-family="sans-serif" font-size="6.474" lengthAdjust="spacing" textLength="54.5665" x="1427.5145" y="33.755">StorageManager</text><rect fill="#FEFECE" filter="url(#f1fdueanlmkw8n)" height="14.0101" style="stroke:#A80036;stroke-width:0.6936416184971098;" width="61.0405" x="1424.2775" y="534.6026"/><text fill="#000000" font-family="sans-serif" font-size="6.474" lengthAdjust="spacing" textLength="54.5665" x="1427.5145" y="543.8489">StorageManager</text><rect fill="#FEFECE" filter="url(#f1fdueanlmkw8n)" height="14.0101" style="stroke:#A80036;stroke-width:0.6936416184971098;" width="100.3468" x="1491.7919" y="24.5087"/><text fill="#000000" font-family="sans-serif" font-size="6.474" lengthAdjust="spacing" textLength="93.8728" x="1495.0289" y="33.755">AddGameLogViewController</text><rect fill="#FEFECE" filter="url(#f1fdueanlmkw8n)" height="14.0101" style="stroke:#A80036;stroke-width:0.6936416184971098;" width="100.3468" x="1491.7919" y="534.6026"/><text fill="#000000" font-family="sans-serif" font-size="6.474" lengthAdjust="spacing" textLength="93.8728" x="1495.0289" y="543.8489">AddGameLogViewController</text><rect fill="#FEFECE" filter="url(#f1fdueanlmkw8n)" height="14.0101" style="stroke:#A80036;stroke-width:0.6936416184971098;" width="87.3988" x="1598.6127" y="24.5087"/><text fill="#000000" font-family="sans-serif" font-size="6.474" lengthAdjust="spacing" textLength="80.9249" x="1601.8497" y="33.755">GameLogViewController</text><rect fill="#FEFECE" filter="url(#f1fdueanlmkw8n)" height="14.0101" style="stroke:#A80036;stroke-width:0.6936416184971098;" width="87.3988" x="1598.6127" y="534.6026"/><text fill="#000000" font-family="sans-serif" font-size="6.474" lengthAdjust="spacing" textLength="80.9249" x="1601.8497" y="543.8489">GameLogViewController</text><rect fill="#FEFECE" filter="url(#f1fdueanlmkw8n)" height="14.0101" style="stroke:#A80036;stroke-width:0.6936416184971098;" width="113.7572" x="1692.4855" y="24.5087"/><text fill="#000000" font-family="sans-serif" font-size="6.474" lengthAdjust="spacing" textLength="107.2832" x="1695.7225" y="33.755">NewConversationViewController</text><rect fill="#FEFECE" filter="url(#f1fdueanlmkw8n)" height="14.0101" style="stroke:#A80036;stroke-width:0.6936416184971098;" width="113.7572" x="1692.4855" y="534.6026"/><text fill="#000000" font-family="sans-serif" font-size="6.474" lengthAdjust="spacing" textLength="107.2832" x="1695.7225" y="543.8489">NewConversationViewController</text><rect fill="#FEFECE" filter="url(#f1fdueanlmkw8n)" height="14.0101" style="stroke:#A80036;stroke-width:0.6936416184971098;" width="103.1214" x="1812.7168" y="24.5087"/><text fill="#000000" font-family="sans-serif" font-size="6.474" lengthAdjust="spacing" textLength="96.6474" x="1815.9538" y="33.755">ConversationsViewController</text><rect fill="#FEFECE" filter="url(#f1fdueanlmkw8n)" height="14.0101" style="stroke:#A80036;stroke-width:0.6936416184971098;" width="103.1214" x="1812.7168" y="534.6026"/><text fill="#000000" font-family="sans-serif" font-size="6.474" lengthAdjust="spacing" textLength="96.6474" x="1815.9538" y="543.8489">ConversationsViewController</text><rect fill="#FEFECE" filter="url(#f1fdueanlmkw8n)" height="14.0101" style="stroke:#A80036;stroke-width:0.6936416184971098;" width="71.6763" x="1922.3121" y="24.5087"/><text fill="#000000" font-family="sans-serif" font-size="6.474" lengthAdjust="spacing" textLength="65.2023" x="1925.5491" y="33.755">ChatViewController</text><rect fill="#FEFECE" filter="url(#f1fdueanlmkw8n)" height="14.0101" style="stroke:#A80036;stroke-width:0.6936416184971098;" width="71.6763" x="1922.3121" y="534.6026"/><text fill="#000000" font-family="sans-serif" font-size="6.474" lengthAdjust="spacing" textLength="65.2023" x="1925.5491" y="543.8489">ChatViewController</text><polygon fill="#A80036" points="97.5723,53.3779,102.1965,55.2276,97.5723,57.0773,99.422,55.2276" style="stroke:#A80036;stroke-width:0.4624277456647399;"/><line style="stroke:#A80036;stroke-width:0.4624277456647399;" x1="12.4855" x2="100.3468" y1="55.2276" y2="55.2276"/><text fill="#000000" font-family="sans-serif" font-size="6.0116" lengthAdjust="spacing" textLength="60.1156" x="15.7225" y="52.885">loginButtonTapped()</text><polygon fill="#A80036" points="97.5723,66.8497,102.1965,68.6994,97.5723,70.5491,99.422,68.6994" style="stroke:#A80036;stroke-width:0.4624277456647399;"/><line style="stroke:#A80036;stroke-width:0.4624277456647399;" x1="12.4855" x2="100.3468" y1="68.6994" y2="68.6994"/><text fill="#000000" font-family="sans-serif" font-size="6.0116" lengthAdjust="spacing" textLength="68.9017" x="15.7225" y="66.3568">registerButtonTapped()</text><polygon fill="#A80036" points="171.0983,80.3215,175.7225,82.1712,171.0983,84.021,172.948,82.1712" style="stroke:#A80036;stroke-width:0.4624277456647399;"/><line style="stroke:#A80036;stroke-width:0.4624277456647399;" x1="12.4855" x2="173.8728" y1="82.1712" y2="82.1712"/><text fill="#000000" font-family="sans-serif" font-size="6.0116" lengthAdjust="spacing" textLength="58.7283" x="15.7225" y="79.8286">didTapSendButton()</text><polygon fill="#A80036" points="171.0983,93.7934,175.7225,95.6431,171.0983,97.4928,172.948,95.6431" style="stroke:#A80036;stroke-width:0.4624277456647399;"/><line style="stroke:#A80036;stroke-width:0.4624277456647399;" x1="12.4855" x2="173.8728" y1="95.6431" y2="95.6431"/><text fill="#000000" font-family="sans-serif" font-size="6.0116" lengthAdjust="spacing" textLength="73.526" x="15.7225" y="93.3004">didTapCommentButton()</text><polygon fill="#A80036" points="242.5434,107.2652,247.1676,109.1149,242.5434,110.9646,244.3931,109.1149" style="stroke:#A80036;stroke-width:0.4624277456647399;"/><line style="stroke:#A80036;stroke-width:0.4624277456647399;" x1="12.4855" x2="245.3179" y1="109.1149" y2="109.1149"/><text fill="#000000" font-family="sans-serif" font-size="6.0116" lengthAdjust="spacing" textLength="67.5145" x="15.7225" y="106.7723">didTapEndorsements()</text><polygon fill="#A80036" points="242.5434,120.737,247.1676,122.5867,242.5434,124.4364,244.3931,122.5867" style="stroke:#A80036;stroke-width:0.4624277456647399;"/><line style="stroke:#A80036;stroke-width:0.4624277456647399;" x1="12.4855" x2="245.3179" y1="122.5867" y2="122.5867"/><text fill="#000000" font-family="sans-serif" font-size="6.0116" lengthAdjust="spacing" textLength="51.7919" x="15.7225" y="120.2441">didTapFollowing()</text><polygon fill="#A80036" points="305.896,134.2088,310.5202,136.0585,305.896,137.9082,307.7457,136.0585" style="stroke:#A80036;stroke-width:0.4624277456647399;"/><line style="stroke:#A80036;stroke-width:0.4624277456647399;" x1="12.4855" x2="308.6705" y1="136.0585" y2="136.0585"/><text fill="#000000" font-family="sans-serif" font-size="6.0116" lengthAdjust="spacing" textLength="55.0289" x="15.7225" y="133.7159">didTapInfoButton()</text><polygon fill="#A80036" points="305.896,147.6806,310.5202,149.5303,305.896,151.3801,307.7457,149.5303" style="stroke:#A80036;stroke-width:0.4624277456647399;"/><line style="stroke:#A80036;stroke-width:0.4624277456647399;" x1="12.4855" x2="308.6705" y1="149.5303" y2="149.5303"/><text fill="#000000" font-family="sans-serif" font-size="6.0116" lengthAdjust="spacing" textLength="60.578" x="15.7225" y="147.1877">didTapScoutButton()</text><polygon fill="#A80036" points="377.5723,161.1525,382.1965,163.0022,377.5723,164.8519,379.422,163.0022" style="stroke:#A80036;stroke-width:0.4624277456647399;"/><line style="stroke:#A80036;stroke-width:0.4624277456647399;" x1="12.4855" x2="380.3468" y1="163.0022" y2="163.0022"/><text fill="#000000" font-family="sans-serif" font-size="6.0116" lengthAdjust="spacing" textLength="54.104" x="15.7225" y="160.6595">didTapComment()</text><polygon fill="#A80036" points="377.5723,174.6243,382.1965,176.474,377.5723,178.3237,379.422,176.474" style="stroke:#A80036;stroke-width:0.4624277456647399;"/><line style="stroke:#A80036;stroke-width:0.4624277456647399;" x1="12.4855" x2="380.3468" y1="176.474" y2="176.474"/><text fill="#000000" font-family="sans-serif" font-size="6.0116" lengthAdjust="spacing" textLength="55.0289" x="15.7225" y="174.1314">didTapLikesLabel()</text><polygon fill="#A80036" points="464.7399,188.0961,469.3642,189.9458,464.7399,191.7955,466.5896,189.9458" style="stroke:#A80036;stroke-width:0.4624277456647399;"/><line style="stroke:#A80036;stroke-width:0.4624277456647399;" x1="12.4855" x2="467.5145" y1="189.9458" y2="189.9458"/><text fill="#000000" font-family="sans-serif" font-size="6.0116" lengthAdjust="spacing" textLength="55.0289" x="15.7225" y="187.6032">didTapEditButton()</text><polygon fill="#A80036" points="567.6301,201.5679,572.2543,203.4176,567.6301,205.2673,569.4798,203.4176" style="stroke:#A80036;stroke-width:0.4624277456647399;"/><line style="stroke:#A80036;stroke-width:0.4624277456647399;" x1="12.4855" x2="570.4046" y1="203.4176" y2="203.4176"/><text fill="#000000" font-family="sans-serif" font-size="6.0116" lengthAdjust="spacing" textLength="53.1792" x="15.7225" y="201.075">didTapGameLog()</text><polygon fill="#A80036" points="253.1792,215.0397,248.5549,216.8895,253.1792,218.7392,251.3295,216.8895" style="stroke:#A80036;stroke-width:0.4624277456647399;"/><line style="stroke:#A80036;stroke-width:0.4624277456647399;" x1="250.4046" x2="683.0058" y1="216.8895" y2="216.8895"/><text fill="#000000" font-family="sans-serif" font-size="6.0116" lengthAdjust="spacing" textLength="67.5145" x="255.9538" y="214.5468">didTapEndorsements()</text><polygon fill="#A80036" points="253.1792,228.5116,248.5549,230.3613,253.1792,232.211,251.3295,230.3613" style="stroke:#A80036;stroke-width:0.4624277456647399;"/><line style="stroke:#A80036;stroke-width:0.4624277456647399;" x1="250.4046" x2="683.0058" y1="230.3613" y2="230.3613"/><text fill="#000000" font-family="sans-serif" font-size="6.0116" lengthAdjust="spacing" textLength="51.7919" x="255.9538" y="228.0187">didTapFollowing()</text><polygon fill="#A80036" points="253.1792,241.9834,248.5549,243.8331,253.1792,245.6828,251.3295,243.8331" style="stroke:#A80036;stroke-width:0.4624277456647399;"/><line style="stroke:#A80036;stroke-width:0.4624277456647399;" x1="250.4046" x2="683.0058" y1="243.8331" y2="243.8331"/><text fill="#000000" font-family="sans-serif" font-size="6.0116" lengthAdjust="spacing" textLength="52.2543" x="255.9538" y="241.4905">didTapFollowers()</text><polygon fill="#A80036" points="316.5318,255.4552,311.9075,257.3049,316.5318,259.1546,314.6821,257.3049" style="stroke:#A80036;stroke-width:0.4624277456647399;"/><line style="stroke:#A80036;stroke-width:0.4624277456647399;" x1="313.7572" x2="683.0058" y1="257.3049" y2="257.3049"/><text fill="#000000" font-family="sans-serif" font-size="6.0116" lengthAdjust="spacing" textLength="55.0289" x="319.3064" y="254.9623">didTapInfoButton()</text><polygon fill="#A80036" points="316.5318,268.927,311.9075,270.7767,316.5318,272.6264,314.6821,270.7767" style="stroke:#A80036;stroke-width:0.4624277456647399;"/><line style="stroke:#A80036;stroke-width:0.4624277456647399;" x1="313.7572" x2="683.0058" y1="270.7767" y2="270.7767"/><text fill="#000000" font-family="sans-serif" font-size="6.0116" lengthAdjust="spacing" textLength="60.578" x="319.3064" y="268.4341">didTapScoutButton()</text><polygon fill="#A80036" points="768.0925,282.3988,772.7168,284.2486,768.0925,286.0983,769.9422,284.2486" style="stroke:#A80036;stroke-width:0.4624277456647399;"/><line style="stroke:#A80036;stroke-width:0.4624277456647399;" x1="103.1214" x2="770.8671" y1="284.2486" y2="284.2486"/><text fill="#000000" font-family="sans-serif" font-size="6.0116" lengthAdjust="spacing" textLength="76.3006" x="106.3584" y="281.9059">handleNotAuthenticated()</text><polygon fill="#A80036" points="855.4913,295.8707,860.1156,297.7204,855.4913,299.5701,857.341,297.7204" style="stroke:#A80036;stroke-width:0.4624277456647399;"/><line style="stroke:#A80036;stroke-width:0.4624277456647399;" x1="103.1214" x2="858.2659" y1="297.7204" y2="297.7204"/><text fill="#000000" font-family="sans-serif" font-size="6.0116" lengthAdjust="spacing" textLength="68.9017" x="106.3584" y="295.3778">registerButtonTapped()</text><polygon fill="#A80036" points="929.2486,309.3425,933.8728,311.1922,929.2486,313.0419,931.0983,311.1922" style="stroke:#A80036;stroke-width:0.4624277456647399;"/><line style="stroke:#A80036;stroke-width:0.4624277456647399;" x1="43.9306" x2="932.0231" y1="311.1922" y2="311.1922"/><text fill="#000000" font-family="sans-serif" font-size="6.0116" lengthAdjust="spacing" textLength="18.4971" x="47.1676" y="308.8496">login()</text><polygon fill="#A80036" points="929.2486,322.8143,933.8728,324.664,929.2486,326.5137,931.0983,324.664" style="stroke:#A80036;stroke-width:0.4624277456647399;"/><line style="stroke:#A80036;stroke-width:0.4624277456647399;" x1="43.9306" x2="932.0231" y1="324.664" y2="324.664"/><text fill="#000000" font-family="sans-serif" font-size="6.0116" lengthAdjust="spacing" textLength="23.1214" x="47.1676" y="322.3214">logout()</text><polygon fill="#A80036" points="929.2486,336.2861,933.8728,338.1358,929.2486,339.9855,931.0983,338.1358" style="stroke:#A80036;stroke-width:0.4624277456647399;"/><line style="stroke:#A80036;stroke-width:0.4624277456647399;" x1="43.9306" x2="932.0231" y1="338.1358" y2="338.1358"/><text fill="#000000" font-family="sans-serif" font-size="6.0116" lengthAdjust="spacing" textLength="53.6416" x="47.1676" y="335.7932">registerNewUser()</text><polygon fill="#A80036" points="388.2081,349.7579,383.5838,351.6077,388.2081,353.4574,386.3584,351.6077" style="stroke:#A80036;stroke-width:0.4624277456647399;"/><line style="stroke:#A80036;stroke-width:0.4624277456647399;" x1="385.4335" x2="1001.6185" y1="351.6077" y2="351.6077"/><text fill="#000000" font-family="sans-serif" font-size="6.0116" lengthAdjust="spacing" textLength="55.0289" x="390.9827" y="349.265">didTapLikesLabel()</text><polygon fill="#A80036" points="377.5723,363.2298,382.1965,365.0795,377.5723,366.9292,379.422,365.0795" style="stroke:#A80036;stroke-width:0.4624277456647399;"/><line style="stroke:#A80036;stroke-width:0.4624277456647399;" x1="43.9306" x2="380.3468" y1="365.0795" y2="365.0795"/><text fill="#000000" font-family="sans-serif" font-size="6.0116" lengthAdjust="spacing" textLength="52.7168" x="47.1676" y="362.7369">fetchComments()</text><polygon fill="#A80036" points="1174.7977,376.7016,1179.422,378.5513,1174.7977,380.401,1176.6474,378.5513" style="stroke:#A80036;stroke-width:0.4624277456647399;"/><line style="stroke:#A80036;stroke-width:0.4624277456647399;" x1="1086.2428" x2="1177.5723" y1="378.5513" y2="378.5513"/><text fill="#000000" font-family="sans-serif" font-size="6.0116" lengthAdjust="spacing" textLength="55.0289" x="1089.4798" y="376.2087">didTapEditButton()</text><polygon fill="#A80036" points="1080.6936,390.1734,1085.3179,392.0231,1080.6936,393.8728,1082.5434,392.0231" style="stroke:#A80036;stroke-width:0.4624277456647399;"/><line style="stroke:#A80036;stroke-width:0.4624277456647399;" x1="773.6416" x2="1083.4682" y1="392.0231" y2="392.0231"/><text fill="#000000" font-family="sans-serif" font-size="6.0116" lengthAdjust="spacing" textLength="54.104" x="776.8786" y="389.6805">didTapEditProfile()</text><polygon fill="#A80036" points="1269.1329,403.6452,1273.7572,405.4949,1269.1329,407.3447,1270.9827,405.4949" style="stroke:#A80036;stroke-width:0.4624277456647399;"/><line style="stroke:#A80036;stroke-width:0.4624277456647399;" x1="773.6416" x2="1271.9075" y1="405.4949" y2="405.4949"/><text fill="#000000" font-family="sans-serif" font-size="6.0116" lengthAdjust="spacing" textLength="45.3179" x="776.8786" y="403.1523">createVideold()</text><polygon fill="#A80036" points="1365.5491,417.1171,1370.1734,418.9668,1365.5491,420.8165,1367.3988,418.9668" style="stroke:#A80036;stroke-width:0.4624277456647399;"/><line style="stroke:#A80036;stroke-width:0.4624277456647399;" x1="1274.6821" x2="1368.3237" y1="418.9668" y2="418.9668"/><text fill="#000000" font-family="sans-serif" font-size="6.0116" lengthAdjust="spacing" textLength="40.2312" x="1277.9191" y="416.6241">didTapDone()</text><polygon fill="#A80036" points="1365.5491,430.5889,1370.1734,432.4386,1365.5491,434.2883,1367.3988,432.4386" style="stroke:#A80036;stroke-width:0.4624277456647399;"/><line style="stroke:#A80036;stroke-width:0.4624277456647399;" x1="773.6416" x2="1368.3237" y1="432.4386" y2="432.4386"/><text fill="#000000" font-family="sans-serif" font-size="6.0116" lengthAdjust="spacing" textLength="44.3931" x="776.8786" y="430.096">didTapCancel()</text><polygon fill="#A80036" points="49.0173,444.0607,44.3931,445.9104,49.0173,447.7601,47.1676,445.9104" style="stroke:#A80036;stroke-width:0.4624277456647399;"/><line style="stroke:#A80036;stroke-width:0.4624277456647399;" x1="46.2428" x2="1455.2601" y1="445.9104" y2="445.9104"/><text fill="#000000" font-family="sans-serif" font-size="6.0116" lengthAdjust="spacing" textLength="30.9827" x="51.7919" y="443.5678">getVideo()</text><polygon fill="#A80036" points="1637.6879,457.5325,1642.3121,459.3822,1637.6879,461.2319,1639.5376,459.3822" style="stroke:#A80036;stroke-width:0.4624277456647399;"/><line style="stroke:#A80036;stroke-width:0.4624277456647399;stroke-dasharray:2.0,2.0;" x1="1542.8902" x2="1640.4624" y1="459.3822" y2="459.3822"/><text fill="#000000" font-family="sans-serif" font-size="6.0116" lengthAdjust="spacing" textLength="55.4913" x="1546.1272" y="457.0396">didTapAddButton()</text><polygon fill="#A80036" points="1547.9769,471.0043,1543.3526,472.854,1547.9769,474.7038,1546.1272,472.854" style="stroke:#A80036;stroke-width:0.4624277456647399;"/><line style="stroke:#A80036;stroke-width:0.4624277456647399;" x1="1545.2023" x2="1642.7746" y1="472.854" y2="472.854"/><text fill="#000000" font-family="sans-serif" font-size="6.0116" lengthAdjust="spacing" textLength="39.3064" x="1550.7514" y="470.5114">didTapSave()</text><polygon fill="#A80036" points="1859.6532,484.4762,1864.2775,486.3259,1859.6532,488.1756,1861.5029,486.3259" style="stroke:#A80036;stroke-width:0.4624277456647399;"/><line style="stroke:#A80036;stroke-width:0.4624277456647399;" x1="1750.289" x2="1862.4277" y1="486.3259" y2="486.3259"/><text fill="#000000" font-family="sans-serif" font-size="6.0116" lengthAdjust="spacing" textLength="72.1387" x="1753.526" y="483.9832">didTapComposeButton()</text><polygon fill="#A80036" points="1870.289,497.948,1865.6647,499.7977,1870.289,501.6474,1868.4393,499.7977" style="stroke:#A80036;stroke-width:0.4624277456647399;"/><line style="stroke:#A80036;stroke-width:0.4624277456647399;" x1="1867.5145" x2="1958.6127" y1="499.7977" y2="499.7977"/><text fill="#000000" font-family="sans-serif" font-size="6.0116" lengthAdjust="spacing" textLength="75.8382" x="1873.0636" y="497.4551">createNewConversation()</text><polygon fill="#A80036" points="1744.7399,511.4198,1749.3642,513.2695,1744.7399,515.1192,1746.5896,513.2695" style="stroke:#A80036;stroke-width:0.4624277456647399;"/><line style="stroke:#A80036;stroke-width:0.4624277456647399;" x1="43.9306" x2="1747.5145" y1="513.2695" y2="513.2695"/><text fill="#000000" font-family="sans-serif" font-size="6.0116" lengthAdjust="spacing" textLength="41.1561" x="47.1676" y="510.9269">searchUsers()</text><polygon fill="#A80036" points="49.0173,524.8916,44.3931,526.7413,49.0173,528.591,47.1676,526.7413" style="stroke:#A80036;stroke-width:0.4624277456647399;"/><line style="stroke:#A80036;stroke-width:0.4624277456647399;stroke-dasharray:2.0,2.0;" x1="46.2428" x2="1749.8266" y1="526.7413" y2="526.7413"/><text fill="#000000" font-family="sans-serif" font-size="6.0116" lengthAdjust="spacing" textLength="37.9191" x="51.7919" y="524.3987">getAllUsers()</text><!--MD5=[a32512643ac448109d946acdd3fcffc0]
@startuml
scale 2000 * 5000
actor actor as Actor
database database as DatabaseManager

Actor -> LoginViewController : loginButtonTapped()
Actor -> LoginViewController: registerButtonTapped() 
Actor -> FeedActionsCell : didTapSendButton()
Actor -> FeedActionsCell : didTapCommentButton() 
Actor -> ProfileConnections : didTapEndorsements() 
Actor -> ProfileConnections : didTapFollowing() 
Actor -> ProfileTabs : didTapInfoButton()
Actor -> ProfileTabs : didTapScoutButton() 
Actor -> ViewPostViewController : didTapComment()
Actor -> ViewPostViewController : didTapLikesLabel() 
Actor -> ScoutViewController : didTapEditButton()
Actor -> ScoutInfoCollectionReusableView : didTapGameLog() 


OtherUserViewController -> ProfileConnections: didTapEndorsements()
OtherUserViewController -> ProfileConnections: didTapFollowing() 
OtherUserViewController -> ProfileConnections: didTapFollowers()
OtherUserViewController -> ProfileTabs: didTapInfoButton() 
OtherUserViewController -> ProfileTabs: didTapScoutButton() 


LoginViewController -> ProfileViewController : handleNotAuthenticated()
LoginViewController -> RegisterViewController : registerButtonTapped()
DatabaseManager-> AuthManager : login()
DatabaseManager-> AuthManager : logout()
DatabaseManager-> AuthManager : registerNewUser()


ListsViewController -> ViewPostViewController : didTapLikesLabel()
DatabaseManager -> ViewPostViewController : fetchComments()


SettingsViewController -> EditProfileViewController : didTapEditButton()
ProfileViewController -> SettingsViewController : didTapEditProfile()


ProfileViewController -> NewPostViewController : createVideold()
NewPostViewController -> AddCaptionViewController : didTapDone()
ProfileViewController -> AddCaptionViewController : didTapCancel()

StorageManager -> DatabaseManager : getVideo()

AddGameLogViewController - -> GameLogViewController: didTapAddButton()
GameLogViewController -> AddGameLogViewController : didTapSave()


NewConversationViewController -> ConversationsViewController : didTapComposeButton()
ChatViewController  -> ConversationsViewController : createNewConversation()
DatabaseManager -> NewConversationViewController : searchUsers()
NewConversationViewController  - -> DatabaseManager : getAllUsers()
@enduml

PlantUML version 1.2021.6beta4(Unknown compile time)
(GPL source distribution)
Java Runtime: Java(TM) SE Runtime Environment
JVM: Java HotSpot(TM) 64-Bit Server VM
Default Encoding: UTF-8
Language: en
Country: US
--></g></svg>